<svg width="25" height="25" viewBox="0 0 25 25" fill="none" xmlns="http://www.w3.org/2000/svg">
<g clip-path="url(#clip0_55_177)">
<path d="M25 10.9377C25 11.3521 24.8354 11.7495 24.5424 12.0426C24.2493 12.3356 23.8519 12.5002 23.4375 12.5002V17.969C23.4375 19.2471 22.8234 20.3815 21.875 21.094V24.219C21.875 24.4262 21.7927 24.6249 21.6462 24.7714C21.4997 24.9179 21.301 25.0002 21.0938 25.0002H17.9688C17.7615 25.0002 17.5628 24.9179 17.4163 24.7714C17.2698 24.6249 17.1875 24.4262 17.1875 24.219V21.8752H7.8125V24.219C7.8125 24.4262 7.73019 24.6249 7.58368 24.7714C7.43716 24.9179 7.23845 25.0002 7.03125 25.0002H3.90625C3.69905 25.0002 3.50034 24.9179 3.35382 24.7714C3.20731 24.6249 3.125 24.4262 3.125 24.219V21.094C2.6395 20.7304 2.24547 20.2587 1.97423 19.7162C1.70299 19.1737 1.56201 18.5755 1.5625 17.969V12.5002C1.1481 12.5002 0.750671 12.3356 0.457646 12.0426C0.16462 11.7495 0 11.3521 0 10.9377V7.81271C0 7.39831 0.16462 7.00088 0.457646 6.70785C0.750671 6.41483 1.1481 6.25021 1.5625 6.25021V4.12521C1.5625 2.26896 2.88281 0.637707 4.7875 0.418957C7.34835 0.133658 9.92332 -0.00614971 12.5 0.000207371C15.7812 0.000207371 18.425 0.212707 20.2125 0.418957C22.1172 0.637707 23.4375 2.26896 23.4375 4.12521V6.25021C23.8519 6.25021 24.2493 6.41483 24.5424 6.70785C24.8354 7.00088 25 7.39831 25 7.81271V10.9377ZM5.55 5.03146C7.85924 4.79775 10.179 4.68302 12.5 4.68771C15.3703 4.68771 17.7391 4.8549 19.45 5.03146C19.6521 5.0457 19.8519 4.98087 20.0071 4.85063C20.1623 4.7204 20.2608 4.53495 20.2819 4.33344C20.303 4.13192 20.245 3.93009 20.1201 3.77055C19.9952 3.61101 19.8132 3.50623 19.6125 3.47833C17.2493 3.23868 14.8753 3.12081 12.5 3.12521C9.56875 3.12521 7.14687 3.29552 5.3875 3.47833C5.28294 3.4857 5.18092 3.51404 5.08754 3.56165C4.99416 3.60927 4.91131 3.67519 4.84393 3.75549C4.77656 3.8358 4.72603 3.92884 4.69536 4.02907C4.66469 4.12931 4.65451 4.23469 4.66541 4.33895C4.67632 4.4432 4.7081 4.54419 4.75885 4.63591C4.8096 4.72763 4.8783 4.80819 4.96083 4.87281C5.04337 4.93743 5.13807 4.98477 5.23929 5.01203C5.34051 5.03928 5.44618 5.04589 5.55 5.03146ZM12.5 6.25021C9.56875 6.25021 7.14687 6.42052 5.3875 6.60333C5.19549 6.62341 5.01772 6.71387 4.88846 6.85727C4.7592 7.00066 4.68761 7.18684 4.6875 7.37989V12.933C4.68761 13.1261 4.7592 13.3123 4.88846 13.4556C5.01772 13.599 5.19549 13.6895 5.3875 13.7096C7.14687 13.8924 9.56875 14.0627 12.5 14.0627C15.4312 14.0627 17.8531 13.8924 19.6125 13.7096C19.8045 13.6895 19.9823 13.599 20.1115 13.4556C20.2408 13.3123 20.3124 13.1261 20.3125 12.933V7.37989C20.3124 7.18684 20.2408 7.00066 20.1115 6.85727C19.9823 6.71387 19.8045 6.62341 19.6125 6.60333C17.2493 6.36368 14.8753 6.24581 12.5 6.25021ZM7.8125 17.1877C7.8125 16.7733 7.64788 16.3759 7.35485 16.0829C7.06183 15.7898 6.6644 15.6252 6.25 15.6252C5.8356 15.6252 5.43817 15.7898 5.14515 16.0829C4.85212 16.3759 4.6875 16.7733 4.6875 17.1877C4.6875 17.6021 4.85212 17.9995 5.14515 18.2926C5.43817 18.5856 5.8356 18.7502 6.25 18.7502C6.6644 18.7502 7.06183 18.5856 7.35485 18.2926C7.64788 17.9995 7.8125 17.6021 7.8125 17.1877ZM20.3125 17.1877C20.3125 16.7733 20.1479 16.3759 19.8549 16.0829C19.5618 15.7898 19.1644 15.6252 18.75 15.6252C18.3356 15.6252 17.9382 15.7898 17.6451 16.0829C17.3521 16.3759 17.1875 16.7733 17.1875 17.1877C17.1875 17.6021 17.3521 17.9995 17.6451 18.2926C17.9382 18.5856 18.3356 18.7502 18.75 18.7502C19.1644 18.7502 19.5618 18.5856 19.8549 18.2926C20.1479 17.9995 20.3125 17.6021 20.3125 17.1877ZM9.375 17.1877C9.375 17.6021 9.53962 17.9995 9.83265 18.2926C10.1257 18.5856 10.5231 18.7502 10.9375 18.7502H14.0625C14.4769 18.7502 14.8743 18.5856 15.1674 18.2926C15.4604 17.9995 15.625 17.6021 15.625 17.1877C15.625 16.7733 15.4604 16.3759 15.1674 16.0829C14.8743 15.7898 14.4769 15.6252 14.0625 15.6252H10.9375C10.5231 15.6252 10.1257 15.7898 9.83265 16.0829C9.53962 16.3759 9.375 16.7733 9.375 17.1877Z" fill="black"/>
</g>
<defs>
<clipPath id="clip0_55_177">
<rect width="25" height="25" fill="white"/>
</clipPath>
</defs>
</svg>
