<svg width="19" height="18" viewBox="0 0 19 18" fill="none" xmlns="http://www.w3.org/2000/svg">
<path d="M13.4645 11.3208H12.6514L12.3633 11.0429C13.3718 9.86964 13.979 8.34648 13.979 6.68954C13.979 2.99485 10.9842 0 7.28951 0C3.59483 0 0.599976 2.99485 0.599976 6.68954C0.599976 10.3842 3.59483 13.3791 7.28951 13.3791C8.94646 13.3791 10.4696 12.7719 11.6429 11.7633L11.9207 12.0515V12.8645L17.0665 18L18.6 16.4666L13.4645 11.3208ZM7.28951 11.3208C4.72691 11.3208 2.65829 9.25214 2.65829 6.68954C2.65829 4.12693 4.72691 2.05832 7.28951 2.05832C9.85212 2.05832 11.9207 4.12693 11.9207 6.68954C11.9207 9.25214 9.85212 11.3208 7.28951 11.3208Z" fill="#38A3A5"/>
</svg>
